PathFileType	4	(X/Y/Z)	c:\Git\powerlifing_model_clean\simulations\HC835B\Session1\HC835B_OGW_0004\marker_experimental.trc
DataRate	CameraRate	NumFrames	NumMarkers	Units	OrigDataRate	OrigDataStartFrame	OrigNumFrames
240.000000	240.000000	4	38	mm	240.000000	53	429
Frame#	Time	RPSI			LPSI			RASI			LASI			RTH1			RTH2			RTH3			RTH4			RSK1			RSK2			RSK3			RSK4			RCAL1			RCAL2			RCAL3			RST			RPT			RTN			RFMB			RSMB			RVMB			RFMH			RSMH			RVMH			RPM			LTH1			LTH2			LTH3			LTH4			LSK1			LSK2			LSK3			LSK4			LCAL1			LCAL2			LCAL3			LFMH			LVMH			
		X1	Y1	Z1	X2	Y2	Z2	X3	Y3	Z3	X4	Y4	Z4	X5	Y5	Z5	X6	Y6	Z6	X7	Y7	Z7	X8	Y8	Z8	X9	Y9	Z9	X10	Y10	Z10	X11	Y11	Z11	X12	Y12	Z12	X13	Y13	Z13	X14	Y14	Z14	X15	Y15	Z15	X16	Y16	Z16	X17	Y17	Z17	X18	Y18	Z18	X19	Y19	Z19	X20	Y20	Z20	X21	Y21	Z21	X22	Y22	Z22	X23	Y23	Z23	X24	Y24	Z24	X25	Y25	Z25	X26	Y26	Z26	X27	Y27	Z27	X28	Y28	Z28	X29	Y29	Z29	X30	Y30	Z30	X31	Y31	Z31	X32	Y32	Z32	X33	Y33	Z33	X34	Y34	Z34	X35	Y35	Z35	X36	Y36	Z36	X37	Y37	Z37	X38	Y38	Z38	

54	0.2208333333333333	485.9498901367189	1090.657348632813	-2255.218505859375	596.1016235351564	1083.9990234375	-2255.470458984375	426.8174743652345	1063.140747070313	-2042.26416015625	663.6748046875001	1039.222778320313	-2048.394775390625	356.7490844726563	790.0577392578127	-2042.438598632813	366.5033264160157	798.2979125976565	-1983.24072265625	373.4273376464844	721.2218627929689	-1996.037353515625	393.3832092285157	728.5199584960939	-1941.42578125	437.9431457519532	275.8472595214844	-1993.59521484375	436.1492614746095	266.4195861816407	-1932.126831054688	446.1658020019532	221.1571960449219	-1973.362670898438	456.501190185547	213.8559875488282	-1914.281616210938	520.7070922851564	80.61109924316408	-2017.338623046875	550.7721557617189	42.53400421142579	-2003.728881835938	487.8896789550782	43.63047409057618	-2016.678466796875	555.5385742187501	59.19703674316408	-1934.986694335938	456.5510864257814	56.91925048828126	-1961.246826171875	533.7152099609376	81.94287872314455	-1883.523559570313	525.3825683593751	67.84625244140626	-1850.113647460938	477.7137451171876	92.40331268310548	-1849.28369140625	438.6678466796876	35.26732254028321	-1919.223876953125	520.1605834960939	43.55364608764649	-1795.400512695313	464.6629333496095	60.4031448364258	-1790.099853515625	410.9402465820314	32.19156646728516	-1842.760620117188	467.5581665039064	52.19118881225587	-1731.861694335938	745.5782470703126	763.7590332031251	-2155.666259765625	749.5377197265626	752.3124389648439	-2095.698486328125	750.5280151367189	680.9157714843751	-2134.604248046875	740.6834716796876	668.7254028320314	-2075.7236328125	718.4275512695314	386.9510803222657	-2409.748779296875	729.7465820312501	336.9656982421876	-2394.842529296875	717.6474609375001	341.3949279785157	-2442.815185546875	711.6419677734376	288.5428466796876	-2422.790771484375	647.9370727539064	310.8189086914063	-2564.3115234375	666.8735961914064	298.4336853027344	-2606.272216796875	610.9541625976564	294.2709045410157	-2589.699951171875	631.6264648437501	88.23099517822267	-2515.314453125	718.4666748046876	113.0200805664063	-2581.37744140625	
55	0.225	485.2898254394532	1092.274169921875	-2248.839599609375	595.4008789062501	1085.349975585938	-2249.017333984375	426.2549743652345	1064.95654296875	-2035.881103515625	662.6453247070314	1040.656005859375	-2041.7705078125	356.9213867187501	790.952819824219	-2037.974365234375	366.3989868164063	798.804138183594	-1978.320556640625	373.2854309082032	721.6956787109376	-1991.807250976563	393.1411743164064	728.7330322265626	-1937.040161132813	438.5731811523439	276.3482666015626	-1992.879028320313	436.3384704589845	266.4586486816407	-1931.50537109375	446.3950195312501	221.854476928711	-1972.623413085938	456.590301513672	213.6860961914063	-1913.869506835938	520.7772827148439	80.61365509033205	-2017.388427734375	550.7996215820314	42.50685501098634	-2003.779418945313	487.907684326172	43.62205886840821	-2016.686645507813	555.6581420898439	59.15953063964845	-1935.026245117188	456.6258850097657	56.98141860961915	-1961.28369140625	533.8175048828126	81.95569610595705	-1883.44091796875	525.5040283203126	67.78139495849611	-1850.137451171875	477.921356201172	92.38156127929689	-1849.26904296875	438.694793701172	35.30388259887696	-1919.241821289063	520.2190551757814	43.45132446289063	-1795.349975585938	464.7629699707032	60.37583923339845	-1790.108520507813	410.9802551269532	32.23959350585938	-1842.759521484375	467.6689453125001	52.1063690185547	-1731.844604492188	744.9671630859376	764.7399902343751	-2146.14208984375	749.4116821289064	754.1152343750001	-2086.06005859375	750.2125854492189	682.2491455078126	-2124.0087890625	740.7944946289064	670.7905883789064	-2064.900390625	718.5975341796876	389.7583618164064	-2396.221923828125	729.6562500000001	339.6240234375001	-2381.69775390625	717.5235595703126	344.3682250976563	-2429.547607421875	711.2063598632814	291.4356079101563	-2409.906982421875	646.5686035156251	314.7317810058594	-2551.26318359375	665.0212402343751	302.5768737792969	-2593.469970703125	609.3944702148439	297.9973754882813	-2576.20751953125	632.1741333007814	91.68724822998048	-2502.889404296875	718.1525268554689	117.37109375	-2569.822509765625	
56	0.2291666666666667	484.6061096191407	1093.913330078125	-2242.49609375	594.6812133789064	1086.791137695313	-2242.5703125	425.7815246582032	1066.725708007813	-2029.568603515625	661.9111938476564	1042.295532226563	-2035.244750976563	356.6683044433594	791.9615478515627	-2032.786010742188	366.4237670898438	799.4906005859377	-1973.158813476563	373.0889892578126	722.1879272460939	-1987.805908203125	393.0286560058595	728.8955078125001	-1932.847900390625	439.0721435546876	276.6393432617188	-1992.30126953125	436.4428100585939	266.4145507812501	-1930.960571289063	446.6772766113282	222.0608978271485	-1972.242309570313	456.6117248535157	213.5593261718751	-1913.456665039063	520.8234252929689	80.58767700195314	-2017.435424804688	550.8212280273439	42.49242782592774	-2003.8388671875	487.9580078125001	43.63776397705079	-2016.738525390625	555.7355346679689	59.21678543090822	-1935.09521484375	456.6831970214845	57.01285552978517	-1961.301635742188	533.9304809570314	81.88957977294923	-1883.466186523438	525.6200561523439	67.72463226318361	-1850.156005859375	478.0478820800782	92.38730621337892	-1849.294311523438	438.7221069335939	35.35958862304688	-1919.255249023438	520.2668457031251	43.3972396850586	-1795.340454101563	464.8537597656251	60.33729171752931	-1790.128173828125	411.033905029297	32.28746414184571	-1842.748168945313	467.7325134277345	52.04518890380861	-1731.835327148438	744.2953491210939	765.8673095703126	-2136.519775390625	749.2535400390626	756.1023559570314	-2076.36474609375	749.9304809570314	683.6806030273439	-2113.41357421875	740.8535766601564	673.0584716796876	-2054.10595703125	718.6345825195314	392.6128845214845	-2382.7900390625	729.3689575195314	342.2551574707032	-2368.527099609375	717.1651000976564	347.5321044921876	-2416.4482421875	710.7105102539064	294.4753112792969	-2397.00732421875	645.2257080078126	318.1870117187501	-2538.419921875	663.4840087890626	306.1169128417969	-2580.75830078125	607.9705810546876	301.2063293457032	-2563.085693359375	632.4293212890626	94.9594192504883	-2489.7392578125	717.7983398437501	121.2794189453125	-2557.154052734375	
57	0.2333333333333333	483.9212646484376	1095.582763671875	-2236.15283203125	593.9719238281251	1088.32080078125	-2236.17822265625	425.3013000488282	1068.374389648438	-2023.259643554688	661.2406005859376	1043.843994140625	-2028.729736328125	356.3991394042969	792.9209594726565	-2027.966552734375	366.4082641601563	799.914733886719	-1968.4921875	372.9864501953126	722.9202270507814	-1983.569702148438	393.2140197753907	729.1444702148439	-1928.72119140625	439.5662231445314	276.9433593750001	-1991.776733398438	436.5269470214845	266.5243225097657	-1930.468139648438	446.994110107422	222.1852569580079	-1971.9931640625	456.6097717285157	213.5054779052735	-1913.131958007813	520.8535156250001	80.58492279052736	-2017.51025390625	550.8533935546876	42.49376296997071	-2003.894897460938	487.9770812988282	43.63179397583009	-2016.7666015625	555.8446655273439	59.18577957153322	-1935.131591796875	456.7430114746095	57.08174896240236	-1961.337036132813	534.0490722656251	81.84743499755861	-1883.479248046875	525.7358398437501	67.6851272583008	-1850.179321289063	478.160369873047	92.37191009521486	-1849.298950195313	438.7718505859376	35.42694473266602	-1919.267700195313	520.3631591796876	43.39458084106446	-1795.344482421875	464.9331665039064	60.31594467163087	-1790.15283203125	411.0601501464845	32.31474304199219	-1842.759399414063	467.8059082031251	51.99062728881837	-1731.8486328125	743.6733398437501	767.1693115234376	-2126.98828125	749.0830078125001	758.1047973632814	-2066.71435546875	749.6448364257814	685.2568969726564	-2102.817626953125	741.0063476562501	675.3931884765626	-2043.277954101563	718.4926147460939	395.4789123535157	-2369.486572265625	729.0366210937501	345.1065979003907	-2355.3701171875	716.6794433593751	350.4243164062501	-2403.162109375	710.1042480468751	297.4419250488282	-2383.9033203125	643.9339599609376	321.2930297851563	-2525.7021484375	662.2423706054689	309.1099853515626	-2567.980224609375	606.7687377929689	304.0212097167969	-2550.2666015625	632.3085937500001	98.20962524414065	-2475.9853515625	717.6593017578126	124.7010574340821	-2543.54833984375	
